<svg xmlns="http://www.w3.org/2000/svg" width="38" height="38.626" viewBox="0 0 38 38.626"><defs><style>.a{fill:#4471b7;}</style></defs><g transform="translate(-3.832 0)"><g transform="translate(3.832 0)"><g transform="translate(0 0)"><path class="a" d="M40.6,12.9a1.527,1.527,0,0,0-2.856,1.081A15.937,15.937,0,0,1,16.552,34.272a16.073,16.073,0,0,1-3.164-1.8A15.937,15.937,0,0,1,28.606,4.775L27.524,6.6c-.3.5-.069.837.507.744l5.142-.83a.855.855,0,0,0,.693-1.169L32.121.44c-.2-.55-.6-.589-.9-.087L30.182,2.115A18.99,18.99,0,0,0,5.2,26.674a18.865,18.865,0,0,0,6.379,8.256,19.13,19.13,0,0,0,3.771,2.149A18.991,18.991,0,0,0,40.6,12.9Z" transform="translate(-3.832 0)"/><path class="a" d="M214.22,90.917a1.236,1.236,0,0,0-1.236,1.237v12.32l11.268,5.825a1.237,1.237,0,1,0,1.135-2.2l-9.93-5.133V92.154A1.236,1.236,0,0,0,214.22,90.917Z" transform="translate(-195.89 -83.486)"/></g></g></g></svg>