<svg xmlns="http://www.w3.org/2000/svg" width="58.802" height="32.756" viewBox="0 0 58.802 32.756"><defs><style>.a{fill:#fff;}</style></defs><g transform="translate(-0.02 0)"><path class="a" d="M615.792,447.5v-1.537H613v9.425h2.86v-5.223a2.538,2.538,0,0,1,2.481-1.637,4.9,4.9,0,0,1,1.011.1v-2.706a2.632,2.632,0,0,0-.894-.134A3.353,3.353,0,0,0,615.792,447.5Z" transform="translate(-599.851 -433.829)"/><path class="a" d="M776.061,454.108a5.053,5.053,0,0,0,0-6.946,4.868,4.868,0,0,0-6.863.007,5.037,5.037,0,0,0,0,6.925,4.868,4.868,0,0,0,6.863.015Zm-4.945-1.851a2.522,2.522,0,0,1,0-3.24,2.052,2.052,0,0,1,3.029,0,2.5,2.5,0,0,1,0,3.235,2.057,2.057,0,0,1-3.029,0Z" transform="translate(-747.411 -433.791)"/><path class="a" d="M1232.2,445.79a4.566,4.566,0,0,0-3.367,1.387,4.749,4.749,0,0,0-1.378,3.492,4.852,4.852,0,0,0,1.32,3.521,4.6,4.6,0,0,0,3.458,1.366,5.215,5.215,0,0,0,2.456-.536,6.754,6.754,0,0,0,1.871-1.483l-2.072-1.159a2.978,2.978,0,0,1-2.088.731,1.94,1.94,0,0,1-2.172-1.637h6.483a2.127,2.127,0,0,1,.017-.23c.011-.1.019-.186.025-.267s.009-.149.009-.2a5.153,5.153,0,0,0-1.278-3.525A4.18,4.18,0,0,0,1232.2,445.79Zm-1.938,3.986a2.319,2.319,0,0,1,.71-1.211,1.75,1.75,0,0,1,1.169-.426,1.619,1.619,0,0,1,1.149.495,1.98,1.98,0,0,1,.614,1.143Z" transform="translate(-1185.49 -433.829)"/><path class="a" d="M1457.115,445.79a3.352,3.352,0,0,0-2.665,1.713v-1.537h-2.79v9.425h2.857v-5.223A2.538,2.538,0,0,1,1457,448.53a4.9,4.9,0,0,1,1.011.1v-2.706A2.639,2.639,0,0,0,1457.115,445.79Z" transform="translate(-1399.187 -433.829)"/><path class="a" d="M343.377,201.058a9.363,9.363,0,0,0,.076-.977h0a6.686,6.686,0,0,1,13.373,0h2.695a9.38,9.38,0,0,0-18.759-.161h0a6.355,6.355,0,0,1-.056.794,6.532,6.532,0,0,1-1.482,3.476,5.924,5.924,0,0,1-3.2,1.808v-6.261H333V212.26h3.024v-3.509a10.035,10.035,0,0,0,2.569-.8l2.727,4.305h3.617l-3.991-5.971c.1-.1.2-.209.3-.318A9.213,9.213,0,0,0,343.377,201.058Z" transform="translate(-332.98 -190.7)"/><path class="a" d="M858.59,458.144V445.965h-2.723v.8a3.265,3.265,0,0,0-2.431-.978,4.241,4.241,0,0,0-3.142,1.364,4.656,4.656,0,0,0-1.328,3.382,4.508,4.508,0,0,0,1.36,3.348,4.306,4.306,0,0,0,3.108,1.339,4.069,4.069,0,0,0,2.464-.782v3.7h0a5.747,5.747,0,1,1-11.494,0H841.71a8.44,8.44,0,0,0,16.875.249h0v-.129c0-.041,0-.081,0-.121Zm-3.287-6.011a2.125,2.125,0,0,1-3.041,0,2.452,2.452,0,0,1,0-3.188,2.119,2.119,0,0,1,3.037,0,2.472,2.472,0,0,1,0,3.188Z" transform="translate(-817.837 -433.829)"/><path class="a" d="M1204.505,782.408a1.035,1.035,0,1,1-2.07,0,1.036,1.036,0,0,1,2.07,0Zm-1.812,0a.781.781,0,0,0,.786.8.771.771,0,0,0,.768-.8.777.777,0,1,0-1.554-.008Zm.62.528h-.234v-1.008a2.05,2.05,0,0,1,.387-.03.628.628,0,0,1,.35.074.282.282,0,0,1,.1.221.26.26,0,0,1-.209.234v.012a.3.3,0,0,1,.184.246.727.727,0,0,0,.073.252h-.252a.926.926,0,0,1-.08-.246c-.018-.111-.08-.16-.209-.16h-.11Zm.006-.571h.111c.129,0,.234-.043.234-.147s-.068-.154-.215-.154a.555.555,0,0,0-.129.012Z" transform="translate(-1161.648 -753.703)"/></g></svg>